<?xml version="1.0" encoding="UTF-8" standalone="no"?>
<!DOCTYPE svg PUBLIC "-//W3C//DTD SVG 1.1//EN" "http://www.w3.org/Graphics/SVG/1.1/DTD/svg11.dtd">
<svg width="100%" height="100%" viewBox="0 0 200 137" version="1.1" xmlns="http://www.w3.org/2000/svg" xmlns:xlink="http://www.w3.org/1999/xlink" xml:space="preserve" xmlns:serif="http://www.serif.com/" style="fill-rule:evenodd;clip-rule:evenodd;stroke-linejoin:round;stroke-miterlimit:2;">
    <g transform="matrix(1,0,0,1,-3016.73,-1557.92)">
        <g>
            <g transform="matrix(0.402602,6.70468e-17,-6.70468e-17,0.402602,1860.91,777.214)">
                <path d="M2879.87,2050.8C2862.56,2119.71 2874.62,2135.29 2879.87,2179.45C2885.12,2223.61 2902.4,2233.22 2952.33,2233.22C3002.25,2233.22 3006.09,2215.93 3004.17,2175.61C3002.25,2135.29 3006.09,2137.21 3004.17,2079.61C3002.25,2022 2981.25,2009.6 2942.11,2010.79C2895.36,2012.21 2886.15,2025.84 2879.87,2050.8Z" style="fill:rgb(239,191,19);"/>
            </g>
            <g transform="matrix(0.423682,7.14446e-17,-7.05573e-17,0.42901,1853.78,724.438)">
                <path d="M2879.87,2050.8C2886.07,2121.22 2875.38,2145.15 2880.63,2189.31C2885.88,2233.48 2904.23,2219.82 2952.33,2233.22C3006.8,2248.39 3095.95,2272.51 3130.85,2252.23C3180.45,2223.4 3219.07,2170.11 3216.84,2081.33C3215.68,2035.21 3185.56,1967.14 3131.61,1954.44C3075.51,1941.24 3002.51,1991.41 2951.21,2000.42C2912.64,2007.2 2877.62,2025.17 2879.87,2050.8Z" style="fill:rgb(239,191,19);"/>
            </g>
            <g transform="matrix(0.0943829,0.220812,-0.216835,0.0926829,3275.47,728.084)">
                <path d="M2916.18,2073.62C2914.91,2096.79 2920.51,2111.41 2928.19,2154.67C2936.26,2200.05 2968.81,2239.22 2969.43,2239.51C2999.8,2253.9 2968.64,2218.3 2966.76,2178.78C2964.84,2138.46 2960.88,2139.43 2974.57,2083.51C2978.9,2065.84 2982.27,1988.59 2980.16,1975.5C2974.78,1942.19 2928.11,1966.03 2921.72,1993.91C2915.36,2021.73 2917.59,2047.92 2916.18,2073.62Z" style="fill:rgb(239,191,19);"/>
            </g>
        </g>
    </g>
</svg>
